<?xml version="1.0" standalone="no"?>
<!DOCTYPE svg PUBLIC "-//W3C//DTD SVG 20010904//EN"
 "http://www.w3.org/TR/2001/REC-SVG-20010904/DTD/svg10.dtd">
<svg version="1.0" xmlns="http://www.w3.org/2000/svg"
 width="500.000000pt" height="500.000000pt" viewBox="0 0 500.000000 500.000000"
 preserveAspectRatio="xMidYMid meet">
<metadata>
Created by potrace 1.11, written by Peter Selinger 2001-2013
</metadata>
<g transform="translate(0.000000,500.000000) scale(0.100000,-0.100000)"
fill="#000000" stroke="none">
<path d="M0 2500 l0 -2500 2500 0 2500 0 0 2500 0 2500 -2500 0 -2500 0 0
-2500z m1500 1335 l0 -165 165 0 165 0 0 165 0 165 670 0 670 0 0 -165 0 -165
165 0 165 0 0 165 0 165 165 0 165 0 0 -1500 0 -1500 -165 0 -165 0 0 165 0
165 -165 0 -165 0 0 -165 0 -165 -670 0 -670 0 0 165 0 165 -165 0 -165 0 0
-165 0 -165 -165 0 -165 0 0 1500 0 1500 165 0 165 0 0 -165z"/>
<path d="M1500 3165 l0 -165 165 0 165 0 0 165 0 165 -165 0 -165 0 0 -165z"/>
<path d="M3170 3165 l0 -165 165 0 165 0 0 165 0 165 -165 0 -165 0 0 -165z"/>
<path d="M1500 2500 l0 -170 165 0 165 0 0 170 0 170 -165 0 -165 0 0 -170z"/>
<path d="M3170 2500 l0 -170 165 0 165 0 0 170 0 170 -165 0 -165 0 0 -170z"/>
<path d="M1500 1835 l0 -165 165 0 165 0 0 165 0 165 -165 0 -165 0 0 -165z"/>
<path d="M3170 1835 l0 -165 165 0 165 0 0 165 0 165 -165 0 -165 0 0 -165z"/>
</g>
</svg>
